<svg width="6" height="9" viewBox="0 0 6 9" fill="none" xmlns="http://www.w3.org/2000/svg">
<path d="M8.79318e-05 8.40987V7.43787C0.432088 7.77387 1.80009 8.36187 2.58009 8.36187C3.84009 8.36187 4.53609 7.56987 4.53609 6.33387C4.53609 4.72587 3.19209 3.95787 2.65209 3.95787H2.19609C1.96809 3.95787 1.96809 3.65787 2.19609 3.65787H2.65209C3.31209 3.65787 4.16409 2.82987 4.16409 1.82187C4.16409 0.717875 3.50409 0.237875 2.58009 0.237875C1.80009 0.237875 0.672088 0.825875 0.240088 1.16187V0.189874C1.30809 0.117875 1.89609 -0.00212526 2.58009 -0.00212526C3.84009 -0.00212526 5.12409 0.525874 5.12409 1.86987C5.12409 2.96187 4.24809 3.51387 3.49209 3.75387C4.60809 4.00587 5.83209 4.72587 5.83209 6.22587C5.83209 7.95387 4.03209 8.60188 2.58009 8.60188C1.89609 8.60188 1.06809 8.48188 8.79318e-05 8.40987Z" fill="white"/>
</svg>
